# xmcd
#
# Track frame offsets:
# 150
# 18700
# 42985
# 58939
# 78727
# 101188
# 122550
# 143637
# 163128
# 184153
# 206245
# 227826
#
# Disc length: 3315 seconds
#
# Revision: 2
# Processed by: cddbd v1.5PL3 Copyright (c) Steve Scherf et al.
# Submitted via: Axialis_AX_CDPlayer 2.6
#
DISCID=b30cf10c
DTITLE=Various Artist - SalsaHits 2004
DYEAR=2003
DGENRE=
TTITLE0=Meniando La Cola - Sexappeal
TTITLE1=Si Te Dijeron - Gilberto Santa Rosa
TTITLE2=Doctor (Mi Mujer Me Esta Esperando) - Puerto Rican Power 
TTITLE3=Poco Hombre - Victor Manuelle
TTITLE4=Cachondea - Fruko and Sus Tesos 
TTITLE5=Vuela Muy Alto - Jerry Rivera
TTITLE6=La Comay (Boogaloo) - Sonora Carruseles
TTITLE7=Mi Mulata -Frankie Negron
TTITLE8=Amame o Dejame - Kevin Ceballo
TTITLE9=Trayectoria - Ismael Miranda
TTITLE10=Mori - Tranzas
TTITLE11=Que Swing - T.M.C.
EXTD=YEAR: 2003
EXTT0=
EXTT1=
EXTT2=
EXTT3=
EXTT4=
EXTT5=
EXTT6=
EXTT7=
EXTT8=
EXTT9=
EXTT10=
EXTT11=
PLAYORDER=
